# xmcd CD database file
#
# Track frame offsets:
#	150
#	18625
#	37107
#
# Disc length: 841 seconds
#
# Revision: 2
# Processed by: cddbd v1.5.1PL0 Copyright (c) Steve Scherf et al.
# Submitted via: CDex 1.51
#
DISCID=21034703
DTITLE=Richard Anthony Pisano - MOA (Man On Acid)
DYEAR=2003
DGENRE=New Age
TTITLE0=Earth
TTITLE1=Sea
TTITLE2=Skies
EXTD=YEAR: 2003
EXTT0=
EXTT1=
EXTT2=
PLAYORDER=
